<?xml version="1.0" standalone="no"?> <!DOCTYPE svg PUBLIC "-//W3C//DTD SVG 1.0//EN" "http://www.w3.org/TR/2001/REC-SVG-20010904/DTD/svg10.dtd" > <svg xmlns="http://www.w3.org/2000/svg" width="100%" height="100%">
<defs >
<font id="Neou-Thin" horiz-adv-x="549" ><font-face
    font-family="Neou Thin"
    units-per-em="1000"
    panose-1="0 0 0 0 0 0 0 0 0 0"
    ascent="815"
    descent="-385"
    alphabetic="0" />
<missing-glyph horiz-adv-x="500" d="M63 0V715H438V0H63V0ZM125 63H375V653H125V63V63Z" />
<glyph unicode=" " glyph-name="space" horiz-adv-x="341" />
<glyph unicode="!" glyph-name="exclam" horiz-adv-x="151" d="M33 110H13V715H33V110ZM23 39Q31 39 37 34T43 20Q43 12 37 6T23 0Q15 0 9 6T3 20Q3 28 9 33T23 39Z" />
<glyph unicode="&quot;" glyph-name="quotedbl" horiz-adv-x="192" d="M81 714V596H62V714H81ZM0 714H19V596H0V714Z" />
<glyph unicode="#" glyph-name="numbersign" horiz-adv-x="578" d="M344 483H166L146 233H325L344 483ZM363 483L344 233H475V214H343L326 1H307L323 214H145L128 1H109L126 214H0V233H127L146 483H15V502H148L164 715H184L167 502H346L362 715H381L365 502H490V483H363Z" />
<glyph unicode="$" glyph-name="dollar" horiz-adv-x="517" d="M238 19Q272 19 301 32T353 67T388 119T401 183Q401 217 388 247T353 299T302 335T238 348H226Q222 348 220 349V19H238V19ZM201 367H200H201ZM39 531Q39 497 51 468T86 416T137 380T201 367V696Q167
696 138 683T86 648T52 595T39 531ZM273 364Q304 358 331 342T378 301T409 247T420 183Q420 145 406 112T367 54T309 15T238 0H220V-43H201V0H183Q145 0 112 14T54 53T15 111T0 183V187H19V183Q19 149 32 120T67 68T119 32T183 19H201V350Q189 351 177 353T152
357T130 362T115 370Q72 393 46 436T19 531Q19 569 33 602T72 660T130 700T201 715V752H220V715Q256 715 288 701T345 664T384 609T401 541H381Q379 573 366 601T331 650T281 683T220 696V367Q230 367 240 366Q248 365 257 365T273 364Z" />
<glyph unicode="%" glyph-name="percent" horiz-adv-x="578" d="M121 688Q100 688 82 680T49 658T27 626T19 587Q19 566 27 548T49 515T81 493T121 485Q142 485 160 493T192 515T214 547T222 587Q222 608 214 626T193 658T161 680T121 688ZM121 466Q96 466 74
475T36 501T10 540T0 587Q0 612 9 633T35 671T74 697T121 707Q146 707 167 698T205 672T231 634T241 587Q241 562 232 540T206 502T168 476T121 466ZM369 20Q390 20 408 28T441 49T463 81T471 121Q471 142 463 160T441 193T409 215T369 223Q348 223 330 215T298
193T276 161T268 121Q268 100 276 82T297 50T329 28T369 20ZM369 242Q394 242 416 233T454 207T480 168T490 121Q490 96 481 74T455 36T416 10T369 0Q344 0 323 9T285 35T259 74T249 121Q249 146 258 168T284 206T322 232T369 242ZM490 715L19 0H0L471 715H490Z"
/>
<glyph unicode="&amp;" glyph-name="ampersand" horiz-adv-x="636" d="M234 19Q265 19 293 30T343 61T379 108T396 166V348H183Q149 348 120 335T68 300T32 247T19 183Q19 149 32 120T67 68T119 32T183 19H234V19ZM562 18Q549 10 535 5T503 0Q482 0 463 7T430
28T407 60T397 100H396Q373 55 331 28T234 0H183Q145 0 112 14T54 53T15 111T0 183Q0 217 11 247T42 301T89 341T147 364Q99 385 69 430T39 531Q39 569 53 602T92 661T150 700T221 715H244Q280 715 311 700T366 660T402 602T416 532H396Q396 565 384 593T352 644T304
680T244 696H221Q187 696 158 683T106 648T71 595T58 531Q58 497 71 468T106 416T157 380T221 367H396V451H416V367H495V348H416V100Q416 66 442 43T503 19Q516 19 528 23T550 33L562 18Z" />
<glyph unicode="&apos;" glyph-name="quotesingle" horiz-adv-x="134" d="M23 596H3V714H23V596Z" />
<glyph unicode="(" glyph-name="parenleft" horiz-adv-x="239" d="M147 1Q116 1 90 28T43 104T12 218T0 358Q0 433 11 498T43 611T89 687T147 715V696Q121 696 98 669T58 596T30 488T19 358Q19 289 29 228T57 121T98 47T147 20V1Z" />
<glyph unicode=")" glyph-name="parenright" horiz-adv-x="251" d="M0 20Q26 20 49 47T89 120T117 228T128 358Q128 427 118 488T90 595T49 669T0 696V715Q31 715 57 688T104 612T135 498T147 358Q147 283 136 218T104 105T58 29T0 1V20Z" />
<glyph unicode="*" glyph-name="asterisk" horiz-adv-x="245" d="M136 607Q144 601 139 594Q134 586 126 590L80 618V564Q80 555 70 555Q61 555 61 564V618L15 590Q6 586 1 594Q0 597 0 601T5 607L51 635L5 663Q-1 667 1 676Q6 684 15 679L61 652V705Q61 715 70
715Q80 715 80 705V652L126 679Q134 685 139 676Q143 669 136 663L89 635L136 607V607Z" />
<glyph unicode="+" glyph-name="plus" horiz-adv-x="420" d="M333 338H176V181H157V338H0V357H157V514H176V357H333V338Z" />
<glyph unicode="," glyph-name="comma" horiz-adv-x="168" d="M28 20H51L10 -98H0L28 20Z" />
<glyph unicode="-" glyph-name="hyphen" horiz-adv-x="338" d="M0 338V357H215V338H0Z" />
<glyph unicode="." glyph-name="period" horiz-adv-x="155" d="M43 20Q43 12 37 6T23 0Q15 0 9 6T3 20Q3 28 9 33T23 39Q31 39 37 34T43 20Z" />
<glyph unicode="/" glyph-name="slash" horiz-adv-x="354" d="M19 0H0L249 715H268L19 0Z" />
<glyph unicode="0" glyph-name="zero" horiz-adv-x="652" d="M326 0Q191 0 120 106Q88 153 73 216T57 357Q57 434 74 497T123 609Q158 661 210 688T326 715Q390 715 442 688T529 609Q561 561 578 498T595 357Q595 280 580 217T532 106Q461 0 326 0ZM326 696Q257
696 210 666T132 588T89 479T76 357Q76 206 136 117Q201 19 326 19Q451 19 516 117Q576 206 576 357Q576 418 563 479T520 588T443 666T326 696Z" />
<glyph unicode="1" glyph-name="one" horiz-adv-x="652" d="M424 715V0H405V687L241 524L228 537L405 715V715H424Z" />
<glyph unicode="2" glyph-name="two" horiz-adv-x="652" d="M538 19V0H125V19L469 375Q489 401 500 432T512 500Q512 540 497 576T457 638T396 680T322 696Q283 696 249 681T189 639T148 576T133 500H114Q114 544 130 583T175 651T241 698T322 715Q365 715 403
698T469 652T514 583T531 500Q531 455 515 416T469 347L151 19H538Z" />
<glyph unicode="3" glyph-name="three" horiz-adv-x="652" d="M386 364Q417 358 444 342T491 301T522 247T534 183Q534 145 520 112T481 54T423 15T351 0H300Q264 0 233 13T177 48T137 101T118 166H137Q140 135 154 108T190 62T240 31T300 19H351Q385 19 414 32T466
67T502 119T515 183Q515 217 502 247T467 299T415 335T351 348H269V367H312Q346 367 376 380T428 415T463 467T476 531Q476 565 463 595T428 647T376 683T312 696H290Q258 694 230 680T182 644T149 594T137 532H118Q118 568 131 601T168 660T222 700T290 715H312Q350
715 383 701T441 661T480 603T495 531Q495 475 465 430T386 364Z" />
<glyph unicode="4" glyph-name="four" horiz-adv-x="652" d="M465 277V686L147 277H465ZM529 257H484V0H465V257H123V277L463 715L465 713V715H484V277H529V257Z" />
<glyph unicode="5" glyph-name="five" horiz-adv-x="652" d="M299 430Q344 430 383 413T451 367T497 298T514 214Q514 169 497 130T451 62T383 17T299 0Q251 0 209 19T138 71V102Q164 64 206 41T299 18Q339 18 375 33T437 75T479 137T495 214Q495 255 480 291T438
353T375 395T299 411Q248 411 206 388T138 327V358V715H147H157H470V696H157V377Q186 402 221 416T299 430Z" />
<glyph unicode="6" glyph-name="six" horiz-adv-x="652" d="M326 411Q285 411 250 396T187 354T145 291T129 214Q129 173 144 138T187 76T249 34T326 18Q366 18 402 33T465 75T507 137T523 214Q523 255 508 291T465 353T402 395T326 411ZM523 499Q523 540 508
576T465 638T402 680T326 696Q285 696 250 681T187 639T145 576T129 499V410V303Q155 360 207 395T326 430Q371 430 410 413T478 367T525 298T542 214Q542 169 525 130T479 62T410 17T326 0Q282 0 244 16T177 60T130 125T110 206V499Q110 544 127 583T173 651T242
698T326 715Q371 715 410 698T478 652T525 583T542 499H523Z" />
<glyph unicode="7" glyph-name="seven" horiz-adv-x="652" d="M556 696V696V696L222 0H200L533 696H96V715H556V696Z" />
<glyph unicode="8" glyph-name="eight" horiz-adv-x="652" d="M370 19Q404 19 433 32T485 67T521 119T534 183Q534 217 521 247T486 299T434 335T370 348H282Q248 348 219 335T167 300T131 247T118 183Q118 149 131 120T166 68T218 32T282 19H370V19ZM157 531Q157
497 170 468T205 416T256 380T320 367H332Q366 367 395 380T447 415T482 467T495 531Q495 565 482 595T447 647T396 683T332 696H320Q286 696 257 683T205 648T170 595T157 531ZM406 364Q437 358 464 342T511 301T542 247T553 183Q553 145 539 112T500 54T442 15T370
0H282Q244 0 211 14T153 53T114 111T99 183Q99 217 110 247T141 301T187 341T246 364Q198 385 168 430T138 531V532H137Q137 568 150 601T187 660T241 700T309 715H343Q379 715 410 700T465 660T501 602T515 532H514V531Q514 475 484 430T406 364Z" />
<glyph unicode="9" glyph-name="nine" horiz-adv-x="652" d="M326 303Q366 303 402 318T465 360T507 422T523 499Q523 540 508 576T465 638T402 680T326 696Q285 696 250 681T187 639T145 576T129 499Q129 458 144 423T187 361T249 319T326 303ZM129 214Q129 173
144 138T187 76T249 34T326 18Q366 18 402 33T465 75T507 137T523 214V303V410Q497 353 445 318T326 283Q281 283 242 300T174 346T127 415T110 499Q110 544 127 583T173 651T242 698T326 715Q369 715 407 699T475 655T522 589T542 508V214Q542 169 525 130T479
62T410 17T326 0Q281 0 242 16T174 62T127 130T110 214H129Z" />
<glyph unicode=":" glyph-name="colon" horiz-adv-x="156" d="M23 339Q15 339 9 344T3 358Q3 366 9 372T23 378Q31 378 37 372T43 358Q43 350 37 345T23 339ZM23 39Q31 39 37 34T43 20Q43 3 26 0H23H20Q13 2 8 7T3 20Q3 28 9 33T23 39Z" />
<glyph unicode=";" glyph-name="semicolon" horiz-adv-x="163" d="M31 339Q23 339 18 344T12 358Q12 366 17 372T31 378Q39 378 45 372T51 358Q51 350 45 345T31 339ZM28 20H51L10 -98H0L28 20Z" />
<glyph unicode="=" glyph-name="equal" horiz-adv-x="402" d="M0 285H325V266H0V285ZM325 430V411H0V430H325Z" />
<glyph unicode="?" glyph-name="question" horiz-adv-x="505" d="M208 715Q251 715 289 698T355 652T399 583T416 500Q416 455 400 416T355 347L277 269Q277 268 269 261T250 236T232 189T224 116H204Q204 163 212 194T231 244T251 271T262 281L355 375Q375 401
386 433T398 500Q398 540 383 576T343 638T282 680T208 696Q169 696 135 681T74 639T33 576T18 500H0Q0 544 16 583T61 651T127 698T208 715ZM216 39Q224 39 230 34T236 20Q236 12 230 6T216 0Q208 0 202 6T196 20Q196 28 202 33T216 39Z" />
<glyph unicode="@" glyph-name="at" horiz-adv-x="1121" d="M488 18Q528 18 564 33T627 76T669 138T685 215Q685 256 670 292T627 354T564 396T488 412Q447 412 411 397T348 355T306 292T290 215Q290 174 305 139T348 76T411 34T488 18ZM1004 102Q985 57 944 30T851
2Q821 2 794 12T746 39T709 81T688 133L685 126Q657 71 606 36T488 0Q443 0 404 17T335 63T288 131T271 215Q271 260 288 299T334 368T403 415T488 432Q554 432 606 397T685 304V432H704V243V164Q704 134 716 108T748 63T794 32T851 21Q896 21 932 44T987 105Q993
123 996 134T1001 157T1002 182T1002 215Q1002 314 964 401T858 553T702 656T511 694Q409 694 320 657T164 554T58 401T19 215Q19 149 36 88T86 -26T163 -122T263 -197T380 -246T511 -263Q592 -263 665 -239T801 -170H833Q767 -223 685 -252T511 -282Q405 -282
312 -243T150 -136T40 22T0 215Q0 318 40 409T149 567T312 674T511 714Q616 714 709 675T871 568T981 409T1021 215Q1021 200 1021 189T1020 168T1018 151T1014 133Q1011 116 1004 102Z" />
<glyph unicode="A" glyph-name="A" horiz-adv-x="750" d="M515 259L325 691L135 259H515ZM523 239H127L21 0H0L314 715H335L650 0H629L523 239Z" />
<glyph unicode="B" glyph-name="B" horiz-adv-x="578" d="M295 19Q329 19 359 32T411 67T446 119T459 183Q459 217 446 247T411 299T359 335T295 348H19V19H295V19ZM19 367H257Q291 367 320 380T372 415T407 467T420 531Q420 565 407 595T372 647T321 683T257
696H19V367ZM331 364Q362 358 389 342T436 301T467 247T478 183Q478 145 464 112T425 54T367 15T295 0H0V715H257Q295 715 328 701T386 661T425 603T440 531Q440 475 410 430T331 364Z" />
<glyph unicode="C" glyph-name="C" horiz-adv-x="808" d="M708 293Q697 230 665 177T587 84T482 23T357 0Q283 0 218 28T105 104T28 218T0 357Q0 431 28 496T104 610T218 687T357 715Q423 715 481 693T586 631T665 538T708 422H689Q678 480 648 530T573 617T474
675T357 696Q287 696 226 670T118 597T46 489T19 357Q19 287 45 226T118 118T225 46T357 19Q418 19 473 40T573 97T647 184T689 293H708Z" />
<glyph unicode="D" glyph-name="D" horiz-adv-x="674" d="M217 19Q287 19 349 45T457 118T529 225T556 357Q556 427 530 489T457 597T349 669T217 696H19V19H217V19ZM217 715Q291 715 356 687T469 611T546 497T574 357Q574 283 546 218T470 105T356 28T217 0H1H0V715H1H217V715Z"
/>
<glyph unicode="E" glyph-name="E" horiz-adv-x="550" d="M19 696V367H334V348H19V19H450V0H0V715H450V696H19Z" />
<glyph unicode="F" glyph-name="F" horiz-adv-x="569" d="M19 0H0V715H469V696H19V367H353V348H19V0Z" />
<glyph unicode="G" glyph-name="G" horiz-adv-x="808" d="M708 293Q697 230 665 177T587 84T482 23T357 0Q283 0 218 28T105 104T28 218T0 357Q0 431 28 496T104 610T218 687T357 715Q423 715 481 693T586 631T665 538T708 422H689Q678 480 648 530T573 617T474
675T357 696Q287 696 226 670T118 597T46 489T19 357Q19 287 45 226T118 118T225 46T357 19Q416 19 469 38T566 91T640 172T685 274H377V293H708Z" />
<glyph unicode="H" glyph-name="H" horiz-adv-x="663" d="M563 715V0H544V348H19V0L0 -3V715H19V367H544V715H563Z" />
<glyph unicode="I" glyph-name="I" horiz-adv-x="385" d="M152 696V19H285V0H0V19H133V696H0V715H285V696H152Z" />
<glyph unicode="J" glyph-name="J" horiz-adv-x="457" d="M357 715V357Q357 283 329 218T253 105T139 28T0 0V19Q70 19 131 45T239 118T311 225T338 357V715H357Z" />
<glyph unicode="K" glyph-name="K" horiz-adv-x="593" d="M86 380L19 313V0H0V715H19V340L394 715H422L100 393L493 0H466L86 380Z" />
<glyph unicode="L" glyph-name="L" horiz-adv-x="553" d="M453 19V0H0V715H19V19H453Z" />
<glyph unicode="M" glyph-name="M" horiz-adv-x="785" d="M685 715V0H666V667L352 0H331L19 667V0H0V715H19V715L342 24L666 715V715H685Z" />
<glyph unicode="N" glyph-name="N" horiz-adv-x="672" d="M572 715V0H552L19 681V0H0V715H19V715V715V715V715L552 33V715H572Z" />
<glyph unicode="O" glyph-name="O" horiz-adv-x="814" d="M357 0Q283 0 218 28T105 104T28 218T0 357Q0 431 28 496T104 610T218 687T357 715Q431 715 496 687T609 611T686 497T714 357Q714 283 686 218T610 105T496 28T357 0ZM357 696Q287 696 226 670T118 597T46
489T19 357Q19 287 45 226T118 118T225 46T357 19Q427 19 488 45T596 118T668 225T695 357Q695 427 669 489T596 597T489 669T357 696Z" />
<glyph unicode="P" glyph-name="P" horiz-adv-x="571" d="M19 367H288Q322 367 351 380T403 415T438 467T451 531Q451 565 438 595T403 647T352 683T288 696H19V367ZM0 0V715H288Q326 715 359 701T417 661T456 603T471 531Q471 493 457 460T418 402T360 363T288
348H19V0H0Z" />
<glyph unicode="Q" glyph-name="Q" horiz-adv-x="814" d="M357 19Q425 19 484 43T589 111L467 233L481 246L603 125Q646 171 670 230T695 357Q695 427 669 489T596 597T489 669T357 696Q287 696 226 670T118 597T46 489T19 357Q19 287 45 226T118 118T225 46T357
19ZM714 357Q714 285 688 223T616 112L714 14L700 0L602 98Q554 52 492 26T357 0Q283 0 218 28T105 104T28 218T0 357Q0 431 28 496T104 610T218 687T357 715Q431 715 496 687T609 611T686 497T714 357Z" />
<glyph unicode="R" glyph-name="R" horiz-adv-x="559" d="M19 367H276Q310 367 339 380T391 415T427 467T440 531Q440 565 427 595T392 647T340 683T276 696H19V367ZM68 348L459 0H432L41 348H19V0H0V715H276Q314 715 347 701T405 661T444 603T459 531Q459 493
445 460T406 402T348 363T276 348H68Z" />
<glyph unicode="S" glyph-name="S" horiz-adv-x="606" d="M329 364Q367 358 399 342T455 302T492 248T506 183Q506 145 489 112T442 54T372 15T286 0H220Q175 0 135 14T65 53T18 111T0 183V187H23V183Q23 149 38 120T81 68T143 32T220 19H286Q327 19 363 32T425
67T467 119T483 183Q483 217 468 247T426 299T363 335T286 348Q244 346 216 349T169 358Q148 363 134 370Q82 401 53 440T23 531Q23 569 40 602T88 661T158 700T243 715H263Q307 715 346 702T414 665T462 609T483 541H459Q457 573 441 601T398 651T337 684T263
696H243Q202 696 167 683T104 648T62 595T46 531Q46 497 61 468T104 416T166 380T243 367H275Q289 367 303 367T329 364Z" />
<glyph unicode="T" glyph-name="T" horiz-adv-x="618" d="M518 696H268V0H249V696H0V715H518V696Z" />
<glyph unicode="U" glyph-name="U" horiz-adv-x="650" d="M550 715V275Q550 218 529 168T470 81T382 22T275 0Q218 0 168 21T81 80T22 168T0 275V715H19V275Q19 222 39 176T94 94T175 39T275 19Q328 19 374 39T456 94T511 175T531 275H530V715H550Z" />
<glyph unicode="V" glyph-name="V" horiz-adv-x="699" d="M19 715L302 25L580 715H599L311 0V0H292V0L0 715H19Z" />
<glyph unicode="W" glyph-name="W" horiz-adv-x="934" d="M834 715L640 0H621L417 680L221 0H202L0 715H19L211 35L407 715V715H427V715L630 35L815 715H834Z" />
<glyph unicode="X" glyph-name="X" horiz-adv-x="648" d="M286 357L548 0H524L274 341L24 0H0L262 357L0 715H24L274 374L524 715H548L286 357Z" />
<glyph unicode="Y" glyph-name="Y" horiz-adv-x="648" d="M284 354V0H264V354V354L0 715H24L274 374L524 715H548L284 354Z" />
<glyph unicode="Z" glyph-name="Z" horiz-adv-x="612" d="M512 696L23 19H512V0H0V19L489 696H0V715H512V696Z" />
<glyph unicode="[" glyph-name="bracketleft" horiz-adv-x="341" />
<glyph unicode="\" glyph-name="backslash" horiz-adv-x="361" d="M0 715H19L268 0H249L0 715Z" />
<glyph unicode="]" glyph-name="bracketright" horiz-adv-x="341" />
<glyph unicode="^" glyph-name="asciicircum" horiz-adv-x="341" />
<glyph unicode="_" glyph-name="underscore" horiz-adv-x="524" d="M0 -18V0H402V-18H0Z" />
<glyph unicode="`" glyph-name="grave" horiz-adv-x="215" d="M98 630L0 715H23L108 630H98Z" />
<glyph unicode="a" glyph-name="a" horiz-adv-x="750" d="M515 259L325 691L135 259H515ZM523 239H127L21 0H0L314 715H335L650 0H629L523 239Z" />
<glyph unicode="b" glyph-name="b" horiz-adv-x="578" d="M295 19Q329 19 359 32T411 67T446 119T459 183Q459 217 446 247T411 299T359 335T295 348H19V19H295V19ZM19 367H257Q291 367 320 380T372 415T407 467T420 531Q420 565 407 595T372 647T321 683T257
696H19V367ZM331 364Q362 358 389 342T436 301T467 247T478 183Q478 145 464 112T425 54T367 15T295 0H0V715H257Q295 715 328 701T386 661T425 603T440 531Q440 475 410 430T331 364Z" />
<glyph unicode="c" glyph-name="c" horiz-adv-x="808" d="M708 293Q697 230 665 177T587 84T482 23T357 0Q283 0 218 28T105 104T28 218T0 357Q0 431 28 496T104 610T218 687T357 715Q423 715 481 693T586 631T665 538T708 422H689Q678 480 648 530T573 617T474
675T357 696Q287 696 226 670T118 597T46 489T19 357Q19 287 45 226T118 118T225 46T357 19Q418 19 473 40T573 97T647 184T689 293H708Z" />
<glyph unicode="d" glyph-name="d" horiz-adv-x="674" d="M217 19Q287 19 349 45T457 118T529 225T556 357Q556 427 530 489T457 597T349 669T217 696H19V19H217V19ZM217 715Q291 715 356 687T469 611T546 497T574 357Q574 283 546 218T470 105T356 28T217 0H1H0V715H1H217V715Z"
/>
<glyph unicode="e" glyph-name="e" horiz-adv-x="550" d="M19 696V367H334V348H19V19H450V0H0V715H450V696H19Z" />
<glyph unicode="f" glyph-name="f" horiz-adv-x="569" d="M19 0H0V715H469V696H19V367H353V348H19V0Z" />
<glyph unicode="g" glyph-name="g" horiz-adv-x="808" d="M708 293Q697 230 665 177T587 84T482 23T357 0Q283 0 218 28T105 104T28 218T0 357Q0 431 28 496T104 610T218 687T357 715Q423 715 481 693T586 631T665 538T708 422H689Q678 480 648 530T573 617T474
675T357 696Q287 696 226 670T118 597T46 489T19 357Q19 287 45 226T118 118T225 46T357 19Q416 19 469 38T566 91T640 172T685 274H377V293H708Z" />
<glyph unicode="h" glyph-name="h" horiz-adv-x="663" d="M563 715V0H544V348H19V0L0 -3V715H19V367H544V715H563Z" />
<glyph unicode="i" glyph-name="i" horiz-adv-x="385" d="M152 696V19H285V0H0V19H133V696H0V715H285V696H152Z" />
<glyph unicode="j" glyph-name="j" horiz-adv-x="457" d="M357 715V357Q357 283 329 218T253 105T139 28T0 0V19Q70 19 131 45T239 118T311 225T338 357V715H357Z" />
<glyph unicode="k" glyph-name="k" horiz-adv-x="593" d="M86 380L19 313V0H0V715H19V340L394 715H422L100 393L493 0H466L86 380Z" />
<glyph unicode="l" glyph-name="l" horiz-adv-x="553" d="M453 19V0H0V715H19V19H453Z" />
<glyph unicode="m" glyph-name="m" horiz-adv-x="785" d="M685 715V0H666V667L352 0H331L19 667V0H0V715H19V715L342 24L666 715V715H685Z" />
<glyph unicode="n" glyph-name="n" horiz-adv-x="672" d="M572 715V0H552L19 681V0H0V715H19V715V715V715V715L552 33V715H572Z" />
<glyph unicode="o" glyph-name="o" horiz-adv-x="814" d="M357 0Q283 0 218 28T105 104T28 218T0 357Q0 431 28 496T104 610T218 687T357 715Q431 715 496 687T609 611T686 497T714 357Q714 283 686 218T610 105T496 28T357 0ZM357 696Q287 696 226 670T118 597T46
489T19 357Q19 287 45 226T118 118T225 46T357 19Q427 19 488 45T596 118T668 225T695 357Q695 427 669 489T596 597T489 669T357 696Z" />
<glyph unicode="p" glyph-name="p" horiz-adv-x="571" d="M19 367H288Q322 367 351 380T403 415T438 467T451 531Q451 565 438 595T403 647T352 683T288 696H19V367ZM0 0V715H288Q326 715 359 701T417 661T456 603T471 531Q471 493 457 460T418 402T360 363T288
348H19V0H0Z" />
<glyph unicode="q" glyph-name="q" horiz-adv-x="814" d="M357 19Q425 19 484 43T589 111L467 233L481 246L603 125Q646 171 670 230T695 357Q695 427 669 489T596 597T489 669T357 696Q287 696 226 670T118 597T46 489T19 357Q19 287 45 226T118 118T225 46T357
19ZM714 357Q714 285 688 223T616 112L714 14L700 0L602 98Q554 52 492 26T357 0Q283 0 218 28T105 104T28 218T0 357Q0 431 28 496T104 610T218 687T357 715Q431 715 496 687T609 611T686 497T714 357Z" />
<glyph unicode="r" glyph-name="r" horiz-adv-x="559" d="M19 367H276Q310 367 339 380T391 415T427 467T440 531Q440 565 427 595T392 647T340 683T276 696H19V367ZM68 348L459 0H432L41 348H19V0H0V715H276Q314 715 347 701T405 661T444 603T459 531Q459 493
445 460T406 402T348 363T276 348H68Z" />
<glyph unicode="s" glyph-name="s" horiz-adv-x="606" d="M329 364Q367 358 399 342T455 302T492 248T506 183Q506 145 489 112T442 54T372 15T286 0H220Q175 0 135 14T65 53T18 111T0 183V187H23V183Q23 149 38 120T81 68T143 32T220 19H286Q327 19 363 32T425
67T467 119T483 183Q483 217 468 247T426 299T363 335T286 348Q244 346 216 349T169 358Q148 363 134 370Q82 401 53 440T23 531Q23 569 40 602T88 661T158 700T243 715H263Q307 715 346 702T414 665T462 609T483 541H459Q457 573 441 601T398 651T337 684T263
696H243Q202 696 167 683T104 648T62 595T46 531Q46 497 61 468T104 416T166 380T243 367H275Q289 367 303 367T329 364Z" />
<glyph unicode="t" glyph-name="t" horiz-adv-x="618" d="M518 696H268V0H249V696H0V715H518V696Z" />
<glyph unicode="u" glyph-name="u" horiz-adv-x="650" d="M550 715V275Q550 218 529 168T470 81T382 22T275 0Q218 0 168 21T81 80T22 168T0 275V715H19V275Q19 222 39 176T94 94T175 39T275 19Q328 19 374 39T456 94T511 175T531 275H530V715H550Z" />
<glyph unicode="v" glyph-name="v" horiz-adv-x="699" d="M19 715L302 25L580 715H599L311 0V0H292V0L0 715H19Z" />
<glyph unicode="w" glyph-name="w" horiz-adv-x="934" d="M834 715L640 0H621L417 680L221 0H202L0 715H19L211 35L407 715V715H427V715L630 35L815 715H834Z" />
<glyph unicode="x" glyph-name="x" horiz-adv-x="648" d="M286 357L548 0H524L274 341L24 0H0L262 357L0 715H24L274 374L524 715H548L286 357Z" />
<glyph unicode="y" glyph-name="y" horiz-adv-x="648" d="M284 354V0H264V354V354L0 715H24L274 374L524 715H548L284 354Z" />
<glyph unicode="z" glyph-name="z" horiz-adv-x="612" d="M512 696L23 19H512V0H0V19L489 696H0V715H512V696Z" />
<glyph unicode="~" glyph-name="asciitilde" horiz-adv-x="241" d="M128 687Q115 665 96 665Q88 665 81 667T67 674Q60 678 51 681T31 685Q21 685 16 680T6 667L0 677Q12 698 33 698Q40 698 48 696T64 689Q87 678 96 678Q105 678 111 683T122 696L128 687Z" />
</font>
</defs>
</svg>
