<?xml version="1.0" standalone="no"?> <!DOCTYPE svg PUBLIC "-//W3C//DTD SVG 1.0//EN" "http://www.w3.org/TR/2001/REC-SVG-20010904/DTD/svg10.dtd" > <svg xmlns="http://www.w3.org/2000/svg" width="100%" height="100%">
<defs >
<font id="Neou-Bold" horiz-adv-x="575" ><font-face
    font-family="Neou"
    units-per-em="1000"
    panose-1="0 0 0 0 0 0 0 0 0 0"
    ascent="815"
    descent="-385"
    alphabetic="0" />
<missing-glyph horiz-adv-x="500" d="M63 0V715H438V0H63V0ZM125 63H375V653H125V63V63Z" />
<glyph unicode=" " glyph-name="space" horiz-adv-x="346" />
<glyph unicode="!" glyph-name="exclam" horiz-adv-x="201" d="M84 174H9V715H84V174ZM47 92Q66 92 79 79T93 46Q93 26 80 13T47 0Q27 0 14 13T0 46Q0 65 13 78T47 92Z" />
<glyph unicode="&quot;" glyph-name="quotedbl" horiz-adv-x="248" d="M135 714V559H77V714H135ZM0 714H58V559H0V714Z" />
<glyph unicode="#" glyph-name="numbersign" horiz-adv-x="602" d="M315 444H207L194 270H302L315 444ZM390 444L376 270H495V196H371L355 0H281L296 196H188L173 0H98L114 196H0V270H119L133 444H14V519H138L154 715H228L213 519H321L336 715H411L395 519H509V444H390Z" />
<glyph unicode="$" glyph-name="dollar" horiz-adv-x="548" d="M185 639Q145 628 119 596T93 519Q93 476 119 443T185 400V639V639ZM260 75Q283 77 303 87T339 114T362 152T371 198Q371 222 363 243T339 280T304 307T260 321V75V75ZM286 392Q321 387 350 370T400
326T433 266T445 198Q445 159 431 124T391 62T333 19T260 0V-39H185V0Q146 2 113 18T54 62T15 124T0 198V201L1 230H75V199V198Q75 174 83 153T107 115T142 88T185 75V327Q155 331 141 336T119 346Q72 372 45 418T18 519Q18 556 31 589T66 648T119 692T185 715V752H260V715Q294
710 323 694T375 653T411 597T427 530L429 500H354L352 527Q350 568 324 598T260 639V394Q265 393 269 393T277 393H283L286 392V392Z" />
<glyph unicode="%" glyph-name="percent" horiz-adv-x="661" d="M140 633Q113 633 94 614T75 568Q75 541 94 522T140 502Q167 502 186 521T205 568Q205 595 186 614T140 633ZM140 428Q111 428 86 439T41 469T11 513T0 568Q0 597 11 622T41 667T85 697T140 708Q169
708 194 697T239 667T269 623T280 568Q280 539 269 514T239 469T195 439T140 428ZM428 72Q455 72 474 91T493 137Q493 164 474 183T428 203Q401 203 382 184T362 137Q362 110 381 91T428 72ZM428 277Q457 277 482 266T527 236T557 192T568 137Q568 108 557 83T527
39T483 9T428 -2Q399 -2 374 9T329 38T299 82T288 137Q288 166 299 191T329 236T373 266T428 277ZM567 715L94 -2H8L481 715H567Z" />
<glyph unicode="&amp;" glyph-name="ampersand" horiz-adv-x="663" d="M360 318H196Q172 318 151 309T113 283T88 246T78 199Q78 175 87 154T113 116T150 91T196 81H243Q265 81 285 89T321 110T347 143T360 185V318ZM585 42L558 24Q526 3 487 3Q454 3 426 18T381
60Q354 32 318 17T243 2H196Q155 2 120 17T58 60T16 122T0 199Q0 253 27 298T99 370Q69 398 52 435T35 515Q35 556 50 592T92 654T154 696T231 712H254Q292 712 325 697T383 655T422 594T438 521H360Q359 543 350 563T327 599T292 624T250 634H231Q207 634 186
625T148 599T123 562T113 515Q113 491 122 469T148 431T185 406T231 396H360V437H438V396H510V318H438V125Q440 106 454 94T487 81Q494 81 501 82T513 89L536 103L585 42Z" />
<glyph unicode="&apos;" glyph-name="quotesingle" horiz-adv-x="171" d="M58 715V559H0V715H58Z" />
<glyph unicode="(" glyph-name="parenleft" horiz-adv-x="287" d="M163 641Q151 641 136 622T107 566T84 477T74 359Q74 294 83 242T107 154T136 98T163 78H191V4H163Q128 4 98 30T46 104T12 216T0 359Q0 436 12 501T46 614T98 688T163 715H191V641H163V641Z" />
<glyph unicode=")" glyph-name="parenright" horiz-adv-x="304" d="M28 715Q64 715 93 689T145 615T179 502T191 359Q191 282 179 217T145 104T94 31T28 4H0V78H28Q40 78 55 97T84 153T107 242T117 359Q117 425 108 477T85 565T56 621T28 641H0V715H28V715Z" />
<glyph unicode="*" glyph-name="asterisk" horiz-adv-x="266" d="M150 603Q157 598 159 591T157 576Q151 567 140 567Q136 567 130 569L99 588V552Q99 544 94 538T80 532Q72 532 67 538T61 552V588L29 569Q23 567 19 567Q14 567 10 569T3 576Q-1 583 0 590T9 603L42
622L9 642Q2 647 1 654Q-1 663 3 668Q8 678 19 678Q24 678 29 675L61 656V693Q61 701 66 706T80 712Q88 712 93 707T99 693V656L130 675Q134 678 140 678Q150 678 157 668Q161 663 159 654Q157 646 150 642L117 622L150 603V603Z" />
<glyph unicode="+" glyph-name="plus" horiz-adv-x="506" d="M395 388V307H238V151H157V307H0V388H157V545H238V388H395Z" />
<glyph unicode="," glyph-name="comma" horiz-adv-x="241" d="M133 84L71 -95H0L42 84H133Z" />
<glyph unicode="-" glyph-name="hyphen" horiz-adv-x="402" d="M276 388V307H0V388H276Z" />
<glyph unicode="." glyph-name="period" horiz-adv-x="196" d="M41 0Q24 0 12 12T0 41Q0 58 12 70T41 82Q58 82 70 70T82 41Q82 24 70 12T41 0Z" />
<glyph unicode="/" glyph-name="slash" horiz-adv-x="412" d="M248 715H326L78 1H0L248 715Z" />
<glyph unicode="0" glyph-name="zero" horiz-adv-x="652" d="M276 76Q375 76 427 153Q452 190 464 242T477 358Q477 417 465 467T430 555Q377 641 276 641Q173 641 122 555Q99 518 87 468T74 358Q74 294 87 242T124 153Q176 76 276 76ZM276 715Q342 715 395 687T486
605Q518 557 535 495T552 358Q552 283 536 221T489 112Q414 1 276 1Q136 1 63 112Q32 158 16 220T0 358Q0 433 17 495T66 605Q103 659 156 687T276 715Z" />
<glyph unicode="1" glyph-name="one" horiz-adv-x="349" d="M249 715V1H175V593L53 471L0 523L190 715H249Z" />
<glyph unicode="2" glyph-name="two" horiz-adv-x="546" d="M129 76H446V1H10V58L333 393Q366 435 366 489Q366 520 355 548T323 596T277 629T220 641Q190 641 163 629T117 597T86 548T74 489V461H0V489Q0 536 17 577T65 649T135 697T220 715Q265 715 305 698T375
649T422 577T439 489Q439 443 423 402T374 329L129 76Z" />
<glyph unicode="3" glyph-name="three" horiz-adv-x="541" d="M340 370Q386 344 413 299T441 198Q441 157 426 121T384 59T321 17T245 1H198Q122 1 66 52Q11 103 3 179L0 210H74L77 184Q80 161 90 141T117 107T154 84T198 75H245Q270 75 292 84T331 111T357 150T367
198Q367 223 358 245T332 284T293 310T245 320H142V395H209Q234 395 256 404T295 430T321 469T331 517Q331 542 322 564T296 603T257 629T209 639H190Q166 639 146 629T110 603T86 564T77 518V489H3V517Q3 556 17 591T56 653T114 696T187 714H189H209Q250 714 286
699T348 657T390 594T406 517Q406 474 389 436T340 370Z" />
<glyph unicode="4" glyph-name="four" horiz-adv-x="530" d="M314 312V576L108 312H314ZM388 312H430V237H388V1H314V233H0V289L327 714H388V312Z" />
<glyph unicode="5" glyph-name="five" horiz-adv-x="503" d="M176 454Q223 454 264 436T336 388T385 316T403 227Q403 180 385 139T337 67T265 18T176 0Q128 0 84 20T7 76L0 84V171Q29 135 59 116T116 87Q146 76 176 75Q207 75 235 87T284 119T317 167T329 227Q329
258 317 286T284 334T235 367T176 379Q138 378 104 371Q75 365 46 352T0 315V715H362V641H74V429Q124 454 176 454Z" />
<glyph unicode="6" glyph-name="six" horiz-adv-x="553" d="M227 379Q195 379 168 367T119 335T86 286T74 227Q74 195 86 168T119 120T167 87T227 75Q258 75 286 87T334 119T367 167T379 227Q379 258 367 286T335 334T286 367T227 379ZM227 715Q274 715 315 697T387
649T435 577T453 488V460H379V488Q379 519 367 547T335 596T286 629T227 641Q195 641 168 629T119 596T86 547T74 488V394Q105 423 144 438T227 454Q274 454 315 436T387 388T435 316T453 227Q453 180 436 139T387 67T315 18T227 0Q185 0 146 14T77 54T27 115T3
191L0 219V488Q0 535 18 576T66 648T138 697T227 715Z" />
<glyph unicode="7" glyph-name="seven" horiz-adv-x="579" d="M479 657L162 1H79L385 641H0V715H479V657Z" />
<glyph unicode="8" glyph-name="eight" horiz-adv-x="574" d="M232 641Q207 641 185 632T146 605T120 566T110 518Q110 492 119 470T145 431T184 405T232 395H242Q267 395 289 404T328 431T354 470T364 518Q364 543 355 565T329 605T290 631T242 641H232ZM278
76Q303 76 325 85T364 111T390 150T400 198Q400 223 391 245T365 285T326 311T278 321H196Q171 321 149 312T110 285T84 246T74 198Q74 173 83 151T109 112T148 86T196 76H225H278V76ZM372 371Q419 345 446 299T474 198Q474 157 459 122T417 59T354 17T278 1H196Q155
1 120 16T58 59T16 121T0 198Q0 253 27 299T101 371Q75 394 58 424T38 490L35 518Q35 557 49 592T88 654T147 697T220 715H221H254Q293 715 328 699T388 656T428 593T439 518L436 490Q434 455 416 425T372 371Z" />
<glyph unicode="9" glyph-name="nine" horiz-adv-x="553" d="M227 336Q258 336 286 348T334 380T367 428T379 488Q379 519 367 547T335 596T286 629T227 641Q195 641 168 629T119 596T86 547T74 488Q74 456 86 429T119 381T167 348T227 336ZM453 496V227Q453 180
436 139T387 67T315 18T227 0Q180 0 139 18T67 66T18 138T0 227V255H74V227Q74 195 86 168T119 120T167 87T227 75Q258 75 286 87T334 119T367 167T379 227V321Q348 293 309 278T227 262Q180 262 139 279T67 328T18 400T0 488Q0 535 18 576T66 648T138 697T227
715Q269 715 308 701T377 661T426 601T450 525L453 496Z" />
<glyph unicode=":" glyph-name="colon" horiz-adv-x="193" d="M41 2Q24 2 12 14T0 43Q0 60 12 72T41 84Q58 84 70 72T82 43Q82 26 70 14T41 2ZM41 320Q24 320 12 331T0 360Q0 377 12 389T41 401Q58 401 70 389T82 360Q82 343 70 332T41 320Z" />
<glyph unicode=";" glyph-name="semicolon" horiz-adv-x="233" d="M133 83L71 -96H0L42 83H133ZM80 318Q63 318 51 330T39 359Q39 376 51 388T80 400Q97 400 109 388T121 359Q121 342 109 330T80 318Z" />
<glyph unicode="=" glyph-name="equal" horiz-adv-x="490" d="M0 316H387V235H0V316ZM387 461V380H0V461H387Z" />
<glyph unicode="?" glyph-name="question" horiz-adv-x="531" d="M221 715Q266 715 306 697T377 649T424 577T442 488Q442 442 425 401T376 327L305 254L302 251Q296 246 284 228T266 169H190Q195 215 211 249T251 306L335 391Q368 435 368 488Q368 519 357 547T325
595T278 628T221 640Q191 640 164 628T117 596T86 547T74 488V459H0V488Q0 535 17 576T65 648T135 697T221 715ZM228 91Q248 91 261 78T275 44Q275 24 262 11T228 -2Q208 -2 195 11T182 44Q182 64 195 77T228 91Z" />
<glyph unicode="@" glyph-name="at" horiz-adv-x="1118" d="M490 58Q523 58 551 70T601 104T634 153T647 215Q647 248 635 276T601 326T552 359T490 372Q457 372 429 360T379 326T346 277T333 215Q333 182 345 154T379 104T428 71T490 58ZM512 715Q618 715 711
676T873 569T983 410T1024 215Q1024 186 1023 169T1016 130Q1014 122 1012 114T1006 98L1005 96Q983 45 937 15T834 -15Q784 -15 742 8T675 72Q642 30 594 6T490 -18Q442 -18 399 0T325 50T275 124T256 215Q256 263 274 305T324 379T399 429T490 448Q535 448 575
432T647 387V448H723V241L724 167Q724 145 732 126T756 92T791 70T834 61Q866 61 893 77T935 122Q939 135 941 143T945 160T947 178T947 201V215Q947 303 913 380T820 514T681 605T512 638Q422 638 343 605T205 515T111 380T77 215Q77 128 111 51T204 -83T343 -174T512
-207Q582 -207 647 -187T769 -125L776 -120H900L834 -172Q765 -226 683 -255T512 -284Q406 -284 313 -245T151 -138T41 21T0 215Q0 318 40 409T150 568T313 675T512 715Z" />
<glyph unicode="A" glyph-name="A" horiz-adv-x="765" d="M474 295L343 594L211 295H474ZM371 715L685 0H604L507 221H178L81 0H0L314 715H371Z" />
<glyph unicode="B" glyph-name="B" horiz-adv-x="579" d="M266 395Q291 395 313 404T353 431T379 470T389 518Q389 543 380 565T353 604T314 630T266 640H76V395H266V395ZM302 75Q327 75 349 84T388 110T414 149T424 197Q424 222 415 244T389 284T350 310T302
320H76V75H302V75ZM397 370Q443 344 471 299T499 197Q499 156 484 120T441 58T378 16T302 0H0L2 29V715H266Q307 715 343 700T405 657T447 594T463 518Q463 474 446 436T397 370Z" />
<glyph unicode="C" glyph-name="C" horiz-adv-x="787" d="M704 267Q689 208 656 159T578 75T476 19T358 -1Q284 -1 219 27T105 103T28 217T0 357Q0 431 28 496T105 610T219 687T358 715Q421 715 478 695T581 637T660 549T707 438H630Q616 483 590 520T528 584T449
626T358 641Q299 641 248 619T158 558T97 467T74 357Q74 298 96 246T157 156T247 95T358 72Q404 72 446 86T524 126T586 188T627 267H704Z" />
<glyph unicode="D" glyph-name="D" horiz-adv-x="665" d="M228 74Q286 74 338 96T428 157T488 247T511 358Q511 416 489 468T428 558T338 618T228 641H75V74H228V74ZM228 715Q302 715 367 687T480 611T557 497T585 358Q585 284 557 219T481 105T367 28T228 0H0V715H228V715Z"
/>
<glyph unicode="E" glyph-name="E" horiz-adv-x="551" d="M0 715H471V640H75V395H364V320H75V75H471V0H0V715Z" />
<glyph unicode="F" glyph-name="F" horiz-adv-x="569" d="M0 715H489V640H75V395H382V320H75V0H0V715Z" />
<glyph unicode="G" glyph-name="G" horiz-adv-x="793" d="M348 326H713L709 287Q702 223 670 171T590 80T482 21T358 0Q284 0 219 28T105 104T28 218T0 357Q0 431 28 496T104 610T218 687T358 715Q420 715 476 695T579 638T657 552T705 442H628Q614 486 588 522T526
585T447 626T358 641Q299 641 248 619T158 558T97 467T74 357Q74 298 96 247T157 157T247 96T358 73Q402 73 442 86T517 122T578 178T621 251H348V326Z" />
<glyph unicode="H" glyph-name="H" horiz-adv-x="655" d="M500 715H575V0H500V320H75V0H0V715H75V395H500V715Z" />
<glyph unicode="I" glyph-name="I" horiz-adv-x="399" d="M197 640V74H319V0H0V74H122V640H0V715H319V640H197Z" />
<glyph unicode="J" glyph-name="J" horiz-adv-x="467" d="M387 715V356Q387 282 359 217T282 104T168 27T28 -1H0V72H28Q87 72 138 94T228 155T289 245T312 356V715H387Z" />
<glyph unicode="K" glyph-name="K" horiz-adv-x="631" d="M551 0H446L108 338L75 304V0H0V715H75V410L380 715H485L161 390L551 0Z" />
<glyph unicode="L" glyph-name="L" horiz-adv-x="553" d="M473 74V0H0V715H75V74H473Z" />
<glyph unicode="M" glyph-name="M" horiz-adv-x="768" d="M688 715V0H613V516L370 0H315L75 515V0H0V715H64L343 118L623 715H688Z" />
<glyph unicode="N" glyph-name="N" horiz-adv-x="663" d="M508 715H583V0H523L75 573V0H0V715H60L508 142V715Z" />
<glyph unicode="O" glyph-name="O" horiz-adv-x="789" d="M355 77Q413 77 464 99T553 160T614 249T636 359Q636 417 614 468T554 557T464 618T355 640Q297 640 246 618T157 558T96 468T74 359Q74 301 96 250T156 160T246 100T355 77ZM355 714Q428 714 492 686T605
610T681 497T709 359Q709 285 681 221T605 108T493 32T355 4Q281 4 217 32T104 108T28 220T0 359Q0 432 28 497T104 610T216 686T355 714Z" />
<glyph unicode="P" glyph-name="P" horiz-adv-x="570" d="M293 395Q318 395 340 404T379 431T405 470T415 518Q415 543 406 565T380 604T341 630T293 640H75V395H293V395ZM293 715Q334 715 370 700T432 657T474 594T490 518Q490 477 475 441T433 378T370 336T293
320H75V0H0V715H293V715Z" />
<glyph unicode="Q" glyph-name="Q" horiz-adv-x="793" d="M418 242L471 295L581 185Q639 260 639 357Q639 415 617 467T557 557T467 618T357 641Q298 641 247 619T157 558T97 467T74 357Q74 298 96 247T157 157T246 97T357 74Q404 74 447 89T528 132L418 242ZM713
53L660 0L581 80Q533 41 476 21T357 0Q283 0 218 28T105 104T28 218T0 357Q0 431 28 496T104 609T218 686T357 714Q430 714 495 686T608 610T685 496T713 357Q713 295 693 238T634 132L713 53Z" />
<glyph unicode="R" glyph-name="R" horiz-adv-x="606" d="M75 395H283Q308 395 330 404T369 431T395 470T405 518Q405 543 396 565T370 604T331 630T283 640H75V395ZM165 320L526 0H415L75 303V0H0V715H283Q323 715 359 700T421 657T463 594T479 518Q479 477 464
441T422 378T359 336T283 320H165Z" />
<glyph unicode="S" glyph-name="S" horiz-adv-x="603" d="M336 391Q377 386 411 369T470 325T509 266T523 197Q523 156 505 120T456 58T382 16T292 0H231Q183 0 141 15T68 57T18 120T0 197V201L1 229H79L78 197Q77 172 89 150T122 111T171 85T231 75H292Q323 75
351 84T400 110T433 149T445 197Q445 222 433 244T400 284T351 310T292 320H290H280H264Q233 322 197 326T138 345Q21 413 21 518Q21 558 39 594T88 657T162 699T252 715H270Q316 715 357 701T429 661T480 602T501 528L503 498H425L423 525Q421 549 409 570T375
606T327 631T270 640H252Q220 640 193 631T145 605T112 566T100 518Q100 493 111 471T141 433T187 406T244 395H249H251H281V394Q331 393 333 391H336V391Z" />
<glyph unicode="T" glyph-name="T" horiz-adv-x="614" d="M0 715H534V640H304V0H230V640H0V715Z" />
<glyph unicode="U" glyph-name="U" horiz-adv-x="643" d="M489 715H563V281Q563 223 541 172T481 83T391 22T282 0Q227 0 179 19T93 73T31 153T1 253H0V281V715H75V278Q75 236 91 199T136 134T202 90T282 74Q324 74 361 90T427 133T472 198T489 277V281V715Z" />
<glyph unicode="V" glyph-name="V" horiz-adv-x="716" d="M557 715H636L348 0H292L0 715H79L320 127L557 715Z" />
<glyph unicode="W" glyph-name="W" horiz-adv-x="922" d="M842 715L648 0H588L422 554L262 0H202L0 715H77L232 164L391 715H451L616 164L766 715H842Z" />
<glyph unicode="X" glyph-name="X" horiz-adv-x="697" d="M617 715L355 357L617 0H524L309 294L93 0H0L262 357L0 715H93L309 420L524 715H617Z" />
<glyph unicode="Y" glyph-name="Y" horiz-adv-x="697" d="M346 345V340V326V0H271V345L0 715H93L309 420L524 715H617L346 345Z" />
<glyph unicode="Z" glyph-name="Z" horiz-adv-x="609" d="M529 660L105 74H529V0L0 -3V55L423 640H0V715H529V660Z" />
<glyph unicode="\" glyph-name="backslash" horiz-adv-x="416" d="M326 1H248L0 715H78L326 1Z" />
<glyph unicode="_" glyph-name="underscore" horiz-adv-x="464" d="M464 0V-80H0V0H464Z" />
<glyph unicode="`" glyph-name="grave" horiz-adv-x="263" d="M153 630H98L0 715H69L153 630Z" />
<glyph unicode="a" glyph-name="a" horiz-adv-x="765" d="M474 295L343 594L211 295H474ZM371 715L685 0H604L507 221H178L81 0H0L314 715H371Z" />
<glyph unicode="b" glyph-name="b" horiz-adv-x="579" d="M266 395Q291 395 313 404T353 431T379 470T389 518Q389 543 380 565T353 604T314 630T266 640H76V395H266V395ZM302 75Q327 75 349 84T388 110T414 149T424 197Q424 222 415 244T389 284T350 310T302
320H76V75H302V75ZM397 370Q443 344 471 299T499 197Q499 156 484 120T441 58T378 16T302 0H0L2 29V715H266Q307 715 343 700T405 657T447 594T463 518Q463 474 446 436T397 370Z" />
<glyph unicode="c" glyph-name="c" horiz-adv-x="787" d="M704 267Q689 208 656 159T578 75T476 19T358 -1Q284 -1 219 27T105 103T28 217T0 357Q0 431 28 496T105 610T219 687T358 715Q421 715 478 695T581 637T660 549T707 438H630Q616 483 590 520T528 584T449
626T358 641Q299 641 248 619T158 558T97 467T74 357Q74 298 96 246T157 156T247 95T358 72Q404 72 446 86T524 126T586 188T627 267H704Z" />
<glyph unicode="d" glyph-name="d" horiz-adv-x="665" d="M228 74Q286 74 338 96T428 157T488 247T511 358Q511 416 489 468T428 558T338 618T228 641H75V74H228V74ZM228 715Q302 715 367 687T480 611T557 497T585 358Q585 284 557 219T481 105T367 28T228 0H0V715H228V715Z"
/>
<glyph unicode="e" glyph-name="e" horiz-adv-x="551" d="M0 715H471V640H75V395H364V320H75V75H471V0H0V715Z" />
<glyph unicode="f" glyph-name="f" horiz-adv-x="546" d="M0 715H489V640H75V395H382V320H75V0H0V715Z" />
<glyph unicode="g" glyph-name="g" horiz-adv-x="793" d="M348 326H713L709 287Q702 223 670 171T590 80T482 21T358 0Q284 0 219 28T105 104T28 218T0 357Q0 431 28 496T104 610T218 687T358 715Q420 715 476 695T579 638T657 552T705 442H628Q614 486 588 522T526
585T447 626T358 641Q299 641 248 619T158 558T97 467T74 357Q74 298 96 247T157 157T247 96T358 73Q402 73 442 86T517 122T578 178T621 251H348V326Z" />
<glyph unicode="h" glyph-name="h" horiz-adv-x="655" d="M500 715H575V0H500V320H75V0H0V715H75V395H500V715Z" />
<glyph unicode="i" glyph-name="i" horiz-adv-x="399" d="M197 640V74H319V0H0V74H122V640H0V715H319V640H197Z" />
<glyph unicode="j" glyph-name="j" horiz-adv-x="467" d="M387 715V356Q387 282 359 217T282 104T168 27T28 -1H0V72H28Q87 72 138 94T228 155T289 245T312 356V715H387Z" />
<glyph unicode="k" glyph-name="k" horiz-adv-x="631" d="M551 0H446L108 338L75 304V0H0V715H75V410L380 715H485L161 390L551 0Z" />
<glyph unicode="l" glyph-name="l" horiz-adv-x="553" d="M473 74V0H0V715H75V74H473Z" />
<glyph unicode="m" glyph-name="m" horiz-adv-x="768" d="M688 715V0H613V516L370 0H315L75 515V0H0V715H64L343 118L623 715H688Z" />
<glyph unicode="n" glyph-name="n" horiz-adv-x="663" d="M508 715H583V0H523L75 573V0H0V715H60L508 142V715Z" />
<glyph unicode="o" glyph-name="o" horiz-adv-x="789" d="M355 77Q413 77 464 99T553 160T614 249T636 359Q636 417 614 468T554 557T464 618T355 640Q297 640 246 618T157 558T96 468T74 359Q74 301 96 250T156 160T246 100T355 77ZM355 714Q428 714 492 686T605
610T681 497T709 359Q709 285 681 221T605 108T493 32T355 4Q281 4 217 32T104 108T28 220T0 359Q0 432 28 497T104 610T216 686T355 714Z" />
<glyph unicode="p" glyph-name="p" horiz-adv-x="570" d="M293 395Q318 395 340 404T379 431T405 470T415 518Q415 543 406 565T380 604T341 630T293 640H75V395H293V395ZM293 715Q334 715 370 700T432 657T474 594T490 518Q490 477 475 441T433 378T370 336T293
320H75V0H0V715H293V715Z" />
<glyph unicode="q" glyph-name="q" horiz-adv-x="793" d="M418 242L471 295L581 185Q639 260 639 357Q639 415 617 467T557 557T467 618T357 641Q298 641 247 619T157 558T97 467T74 357Q74 298 96 247T157 157T246 97T357 74Q404 74 447 89T528 132L418 242ZM713
53L660 0L581 80Q533 41 476 21T357 0Q283 0 218 28T105 104T28 218T0 357Q0 431 28 496T104 609T218 686T357 714Q430 714 495 686T608 610T685 496T713 357Q713 295 693 238T634 132L713 53Z" />
<glyph unicode="r" glyph-name="r" horiz-adv-x="606" d="M75 395H283Q308 395 330 404T369 431T395 470T405 518Q405 543 396 565T370 604T331 630T283 640H75V395ZM165 320L526 0H415L75 303V0H0V715H283Q323 715 359 700T421 657T463 594T479 518Q479 477 464
441T422 378T359 336T283 320H165Z" />
<glyph unicode="s" glyph-name="s" horiz-adv-x="603" d="M336 391Q377 386 411 369T470 325T509 266T523 197Q523 156 505 120T456 58T382 16T292 0H231Q183 0 141 15T68 57T18 120T0 197V201L1 229H79L78 197Q77 172 89 150T122 111T171 85T231 75H292Q323 75
351 84T400 110T433 149T445 197Q445 222 433 244T400 284T351 310T292 320H290H280H264Q233 322 197 326T138 345Q21 413 21 518Q21 558 39 594T88 657T162 699T252 715H270Q316 715 357 701T429 661T480 602T501 528L503 498H425L423 525Q421 549 409 570T375
606T327 631T270 640H252Q220 640 193 631T145 605T112 566T100 518Q100 493 111 471T141 433T187 406T244 395H249H251H281V394Q331 393 333 391H336V391Z" />
<glyph unicode="t" glyph-name="t" horiz-adv-x="614" d="M0 715H534V640H304V0H230V640H0V715Z" />
<glyph unicode="u" glyph-name="u" horiz-adv-x="643" d="M489 715H563V281Q563 223 541 172T481 83T391 22T282 0Q227 0 179 19T93 73T31 153T1 253H0V281V715H75V278Q75 236 91 199T136 134T202 90T282 74Q324 74 361 90T427 133T472 198T489 277V281V715Z" />
<glyph unicode="v" glyph-name="v" horiz-adv-x="716" d="M557 715H636L348 0H292L0 715H79L320 127L557 715Z" />
<glyph unicode="w" glyph-name="w" horiz-adv-x="922" d="M842 715L648 0H588L422 554L262 0H202L0 715H77L232 164L391 715H451L616 164L766 715H842Z" />
<glyph unicode="x" glyph-name="x" horiz-adv-x="697" d="M617 715L355 357L617 0H524L309 294L93 0H0L262 357L0 715H93L309 420L524 715H617Z" />
<glyph unicode="y" glyph-name="y" horiz-adv-x="697" d="M346 345V340V326V0H271V345L0 715H93L309 420L524 715H617L346 345Z" />
<glyph unicode="z" glyph-name="z" horiz-adv-x="609" d="M529 660L105 74H529V0L0 -3V55L423 640H0V715H529V660Z" />
<glyph unicode="~" glyph-name="asciitilde" horiz-adv-x="296" d="M188 678L182 671Q161 638 132 638Q120 638 110 642T91 651Q83 656 74 659T54 663Q50 663 45 661T35 649L24 628L0 666L4 673Q22 706 56 706Q67 706 78 703T99 694Q117 686 123 684T132 682Q141
682 152 698L164 715L188 678Z" />
</font>
</defs>
</svg>
